@startuml
skinparam monochrome true
skinparam packageStyle rectangle
skinparam shadowing false

skinparam classAttributeIconSize 0
left to right direction

hide circle
hide methods

class VFM {
}

class VehicleCheckup {
    date
    currentKm
}

class Vehicle {
vin
vehiclePlate
tareWeight
grossWeight
currentKm
acquisitionDate
maintenanceFrequency
type
}

class Brand {
model
}


Vehicle "1"-- "1..*" Brand: has an >
VFM "1..*" -- "*" Vehicle : cataloged >
Vehicle "1" -- "*" VehicleCheckup : has >
@enduml
