@startuml
skinparam monochrome true
skinparam packageStyle rectangle
skinparam shadowing false

'left to right direction

skinparam classAttributeIconSize 0

hide circle
hide methods


class VehicleCheckup {
    date
    currentKm
    vehiclePlate
}

class Vehicle{
vin
vehiclePlate
tareWeight
grossWeight
currentKm
registrationDate
acquisitionDate
maintenanceFrequency
type
}

class Brand {
    designation
}

class Model{
    designation
}

Vehicle "1..*"-- "1" Brand: has >
Brand "1" -- "1..*" Model: has >
Vehicle "1" - "*" VehicleCheckup : needs >
@enduml