@startuml
skinparam monochrome true
skinparam packageStyle rectangle
skinparam shadowing false

'left to right direction

skinparam classAttributeIconSize 0

hide circle
hide methods



class AgendaEntry {
    startingDate
    progressStatus

}


class ToDoEntry {
    title
    description
    duration
    urgencyStatus

}

class Agenda{
}

class GreenSpace{
name
type
size
manager

}
Agenda "1" -- "1..*" AgendaEntry: has >

AgendaEntry "1" -- "1" ToDoEntry: is >

ToDoEntry "1..*" -- "1" GreenSpace: assigned to >

@enduml
