
@startuml
skinparam monochrome true
skinparam packageStyle rectangle
skinparam shadowing false

'left to right direction

skinparam classAttributeIconSize 0

hide circle
hide methods

'title Domain Model

class Park {
    identification
    openingDate
}

class Equipment {
    description
}

class EquipmentAnalysis {
    parkId
    date
}

Park "1" - "0..*" Equipment : has >
Equipment "*" -- "1" Park : belongs to >
EquipmentAnalysis -- Park : analyses >
@enduml